<mxfile host="app.diagrams.net" agent="Mozilla/5.0 (Windows NT 10.0; Win64; x64) AppleWebKit/537.36 (KHTML, like Gecko) Chrome/141.0.0.0 Safari/537.36" version="28.2.8">
  <diagram name="Rozwiązanie ax + b = 0" id="ufClgXc4MrPA3CdNurqB">
    <mxGraphModel dx="1665" dy="777" grid="1" gridSize="10" guides="1" tooltips="1" connect="1" arrows="1" fold="1" page="1" pageScale="1" pageWidth="827" pageHeight="1169" math="0" shadow="0">
      <root>
        <mxCell id="0" />
        <mxCell id="1" parent="0" />
        <mxCell id="gyjy9HTZt3DqMsjG3c4z-2" value="Start" style="ellipse;whiteSpace=wrap;html=1;fillColor=#CDEB8B;" vertex="1" parent="1">
          <mxGeometry x="240" y="20" width="140" height="50" as="geometry" />
        </mxCell>
        <mxCell id="gyjy9HTZt3DqMsjG3c4z-3" value="Wczytaj a, b" style="rounded=1;whiteSpace=wrap;html=1;fillColor=#FFF2CC;" vertex="1" parent="1">
          <mxGeometry x="200" y="100" width="220" height="50" as="geometry" />
        </mxCell>
        <mxCell id="gyjy9HTZt3DqMsjG3c4z-4" value="a = 0 ?" style="rhombus;whiteSpace=wrap;html=1;fillColor=#E1D5E7;" vertex="1" parent="1">
          <mxGeometry x="240" y="190" width="140" height="80" as="geometry" />
        </mxCell>
        <mxCell id="gyjy9HTZt3DqMsjG3c4z-5" value="b = 0 ?" style="rhombus;whiteSpace=wrap;html=1;fillColor=#E1D5E7;" vertex="1" parent="1">
          <mxGeometry x="240" y="310" width="140" height="80" as="geometry" />
        </mxCell>
        <mxCell id="gyjy9HTZt3DqMsjG3c4z-6" value="Nieskończenie wiele rozwiązań" style="rounded=1;whiteSpace=wrap;html=1;fillColor=#D5E8D4;" vertex="1" parent="1">
          <mxGeometry x="10" y="510" width="220" height="60" as="geometry" />
        </mxCell>
        <mxCell id="gyjy9HTZt3DqMsjG3c4z-7" value="Brak rozwiązań" style="rounded=1;whiteSpace=wrap;html=1;fillColor=#F8CECC;" vertex="1" parent="1">
          <mxGeometry x="300" y="420" width="160" height="60" as="geometry" />
        </mxCell>
        <mxCell id="gyjy9HTZt3DqMsjG3c4z-8" value="x = -b / a" style="rounded=1;whiteSpace=wrap;html=1;fillColor=#DAE8FC;" vertex="1" parent="1">
          <mxGeometry x="450" y="260" width="180" height="60" as="geometry" />
        </mxCell>
        <mxCell id="gyjy9HTZt3DqMsjG3c4z-9" value="Wyświetl x" style="rounded=1;whiteSpace=wrap;html=1;fillColor=#D5E8D4;" vertex="1" parent="1">
          <mxGeometry x="590" y="390" width="140" height="50" as="geometry" />
        </mxCell>
        <mxCell id="gyjy9HTZt3DqMsjG3c4z-10" value="Koniec" style="ellipse;whiteSpace=wrap;html=1;fillColor=#F5F5F5;" vertex="1" parent="1">
          <mxGeometry x="450" y="570" width="120" height="50" as="geometry" />
        </mxCell>
        <mxCell id="gyjy9HTZt3DqMsjG3c4z-11" style="edgeStyle=orthogonalEdgeStyle;rounded=0;orthogonalLoop=1;jettySize=auto;html=1;" edge="1" parent="1" source="gyjy9HTZt3DqMsjG3c4z-2" target="gyjy9HTZt3DqMsjG3c4z-3">
          <mxGeometry relative="1" as="geometry" />
        </mxCell>
        <mxCell id="gyjy9HTZt3DqMsjG3c4z-12" style="edgeStyle=orthogonalEdgeStyle;html=1;" edge="1" parent="1" source="gyjy9HTZt3DqMsjG3c4z-3" target="gyjy9HTZt3DqMsjG3c4z-4">
          <mxGeometry relative="1" as="geometry" />
        </mxCell>
        <mxCell id="gyjy9HTZt3DqMsjG3c4z-13" style="edgeStyle=orthogonalEdgeStyle;html=1;" edge="1" parent="1" source="gyjy9HTZt3DqMsjG3c4z-4" target="gyjy9HTZt3DqMsjG3c4z-5">
          <mxGeometry relative="1" as="geometry">
            <mxPoint x="310" y="270" as="targetPoint" />
          </mxGeometry>
        </mxCell>
        <mxCell id="gyjy9HTZt3DqMsjG3c4z-14" style="edgeStyle=orthogonalEdgeStyle;html=1;rounded=0;" edge="1" parent="1" source="gyjy9HTZt3DqMsjG3c4z-4" target="gyjy9HTZt3DqMsjG3c4z-8">
          <mxGeometry relative="1" as="geometry">
            <mxPoint x="420" y="230" as="targetPoint" />
          </mxGeometry>
        </mxCell>
        <mxCell id="gyjy9HTZt3DqMsjG3c4z-15" style="edgeStyle=orthogonalEdgeStyle;html=1;" edge="1" parent="1" source="gyjy9HTZt3DqMsjG3c4z-5" target="gyjy9HTZt3DqMsjG3c4z-6">
          <mxGeometry relative="1" as="geometry" />
        </mxCell>
        <mxCell id="gyjy9HTZt3DqMsjG3c4z-16" style="edgeStyle=orthogonalEdgeStyle;html=1;" edge="1" parent="1" source="gyjy9HTZt3DqMsjG3c4z-5" target="gyjy9HTZt3DqMsjG3c4z-7">
          <mxGeometry relative="1" as="geometry">
            <mxPoint x="360" y="380" as="targetPoint" />
          </mxGeometry>
        </mxCell>
        <mxCell id="gyjy9HTZt3DqMsjG3c4z-17" style="edgeStyle=orthogonalEdgeStyle;html=1;" edge="1" parent="1" source="gyjy9HTZt3DqMsjG3c4z-8" target="gyjy9HTZt3DqMsjG3c4z-9">
          <mxGeometry relative="1" as="geometry" />
        </mxCell>
        <mxCell id="gyjy9HTZt3DqMsjG3c4z-18" style="edgeStyle=orthogonalEdgeStyle;html=1;" edge="1" parent="1" source="gyjy9HTZt3DqMsjG3c4z-9" target="gyjy9HTZt3DqMsjG3c4z-10">
          <mxGeometry relative="1" as="geometry" />
        </mxCell>
        <mxCell id="gyjy9HTZt3DqMsjG3c4z-19" style="edgeStyle=orthogonalEdgeStyle;html=1;" edge="1" parent="1" source="gyjy9HTZt3DqMsjG3c4z-6" target="gyjy9HTZt3DqMsjG3c4z-10">
          <mxGeometry relative="1" as="geometry" />
        </mxCell>
        <mxCell id="gyjy9HTZt3DqMsjG3c4z-20" style="edgeStyle=orthogonalEdgeStyle;html=1;" edge="1" parent="1" source="gyjy9HTZt3DqMsjG3c4z-7" target="gyjy9HTZt3DqMsjG3c4z-10">
          <mxGeometry relative="1" as="geometry" />
        </mxCell>
      </root>
    </mxGraphModel>
  </diagram>
</mxfile>
